<svg id="SvgjsSvg1104" width="370" height="300" xmlns="http://www.w3.org/2000/svg" version="1.1" xmlns:xlink="http://www.w3.org/1999/xlink" xmlns:svgjs="http://svgjs.com/svgjs" overflow="visible"><g id="SvgjsG1106" class="signage-logo" opacity="1"><defs id="SvgjsDefs1095"></defs><defs id="SvgjsDefs1105"></defs><g id="SvgjsG1096" transform="scale(1.041769041769042)" opacity="1"><g id="SvgjsG1097" class="IR2gxt6We" transform="translate(71.18165130635134, 0) scale(0.7980005569822315)" light-content="false" fill="#ff7d00"><circle cx="133.8" cy="133.8" r="133.8"></circle></g><g id="SvgjsG1098" class="FNkStAhhO_" transform="translate(111.19051137549754, 40.00885752234177) scale(1.335258992552488)" light-content="true" fill="#ffffff"><path d="M88.009 13.874a4.263 4.263 0 0 0-6.982 4.57L57.854 41.618a1.704 1.704 0 0 0 1.205 2.911l32.772-.001a4.253 4.253 0 0 0 3.906 2.559 4.263 4.263 0 0 0 4.264-4.264c-.001-10.937-4.26-21.216-11.992-28.949zm-4.857 7.27a32.143 32.143 0 0 1 8.274 19.973H63.178l19.974-19.973zM50.139 56.785a1.707 1.707 0 0 0-2.413 2.412l10.086 10.086a1.705 1.705 0 1 0 2.413-2.412L50.139 56.785zm-9.198 2.811c-.943 0-1.706.765-1.706 1.705l-.001 14.266c.001.471.191.896.5 1.205a1.706 1.706 0 0 0 2.913-1.205V61.301a1.707 1.707 0 0 0-1.706-1.705zm-9.199-2.811L21.655 66.871a1.705 1.705 0 0 0 .001 2.412 1.704 1.704 0 0 0 2.412 0l10.085-10.086a1.706 1.706 0 0 0-2.411-2.412zM31.344 50c0-.943-.765-1.707-1.706-1.706H15.374a1.705 1.705 0 1 0 .001 3.411H29.64c.94 0 1.704-.763 1.704-1.705zm-7.276-19.284a1.706 1.706 0 0 0-2.413 2.412l10.086 10.087a1.707 1.707 0 0 0 2.412-2.413L24.068 30.716zm16.872 9.687c.942 0 1.706-.764 1.706-1.706V24.434a1.706 1.706 0 0 0-3.411 0l-.001 14.264a1.706 1.706 0 0 0 1.706 1.705z"></path><path d="M80.117 48.294H45.058l24.793-24.79a1.706 1.706 0 0 0 0-2.412c-.002 0-.002-.001-.002-.002l.04-.039s-.002-.001-.002-.003C62.155 13.317 51.877 9.059 40.94 9.059c-10.935 0-21.216 4.258-28.949 11.991C4.259 28.784 0 39.064 0 50c0 11.287 4.591 21.522 12.004 28.936 7.414 7.414 17.648 12.006 28.937 12.006 10.934 0 21.215-4.26 28.949-11.992C77.622 71.217 81.882 60.936 81.881 50h-.058c0-.943-.763-1.706-1.706-1.706zM63.859 72.918c-6.123 6.121-14.262 9.494-22.919 9.494C23.07 82.412 8.53 67.871 8.528 50c0-8.658 3.372-16.798 9.494-22.919 6.122-6.122 14.261-9.493 22.918-9.493 8.088 0 15.722 2.943 21.681 8.321L39.733 48.792c-.026.026-.044.057-.068.084-.051.057-.101.112-.142.174-.034.051-.059.106-.087.159-.023.045-.051.088-.072.135-.026.064-.042.131-.06.197-.011.041-.028.079-.036.122a1.756 1.756 0 0 0 0 .67c.008.045.026.087.039.13.017.062.032.127.058.188.022.051.052.099.078.148.026.049.049.099.079.146a1.71 1.71 0 0 0 .471.472c.05.033.104.057.157.084.045.025.088.053.136.072.068.028.139.046.208.064.037.01.072.025.11.033.113.021.229.033.345.033h32.357c-.413 8.019-3.73 15.496-9.447 21.215z"></path></g><g id="SvgjsG1099" class="text" transform="translate(177.19000244140625, 272.3633834904206) scale(1)" light-content="false" fill="#454545"><path d="M-177.19 0L-170.69 0L-170.69 -13.47C-170.56 -13.41 -169.4 -13.25 -167.2 -13C-165 -12.76 -163.46 -12.6 -162.56 -12.54C-162.06 -12.51 -161.55 -12.52 -161.02 -12.56C-160.5 -12.61 -159.97 -12.67 -159.45 -12.75C-158.92 -12.83 -158.39 -12.99 -157.87 -13.24C-157.34 -13.48 -156.84 -13.77 -156.38 -14.1C-155.92 -14.42 -155.48 -14.87 -155.08 -15.44C-154.68 -16.02 -154.34 -16.67 -154.06 -17.39C-153.78 -18.12 -153.56 -19.01 -153.38 -20.06C-153.21 -21.12 -153.13 -22.26 -153.13 -23.5C-153.13 -25.27 -153.32 -26.8 -153.71 -28.1C-154.1 -29.4 -154.59 -30.42 -155.2 -31.16C-155.8 -31.91 -156.54 -32.5 -157.43 -32.93C-158.31 -33.36 -159.14 -33.65 -159.93 -33.79C-160.72 -33.93 -161.6 -34 -162.56 -34L-177.19 -34ZM-170.69 -18.3L-170.69 -28.24L-163.07 -28.24C-160.84 -28.24 -159.71 -26.64 -159.68 -23.45C-159.68 -21.5 -159.96 -20.16 -160.54 -19.41C-161.11 -18.67 -161.95 -18.3 -163.07 -18.3Z M-145.23 -28.33C-145.23 -28.12 -145.19 -27.92 -145.09 -27.75C-145 -27.58 -144.87 -27.46 -144.7 -27.38C-144.53 -27.3 -144.34 -27.26 -144.12 -27.26L-139.24 -27.26C-138.9 -27.26 -138.65 -27.36 -138.48 -27.54C-138.31 -27.73 -138.22 -27.99 -138.22 -28.33L-138.22 -32.42C-138.22 -33.22 -138.56 -33.63 -139.24 -33.63L-144.12 -33.63C-144.86 -33.63 -145.23 -33.22 -145.23 -32.42ZM-145 0L-138.5 0L-138.5 -24.66L-145 -24.66Z M-130.74 -19.18L-118.99 -19.18L-130.05 -5.48L-130.05 -0.05L-110.82 -0.05L-110.82 -5.53L-121.41 -5.53L-110.82 -19.18L-110.82 -24.66L-130.74 -24.66Z M-104.08 -19.18L-92.33 -19.18L-103.39 -5.48L-103.39 -0.05L-84.16 -0.05L-84.16 -5.53L-94.75 -5.53L-84.16 -19.18L-84.16 -24.66L-104.08 -24.66Z M-77.05 -6.27C-77.05 -4.54 -76.45 -3.03 -75.24 -1.74C-74.03 -0.46 -72.31 0.22 -70.09 0.28C-68.94 0.31 -67.76 0.1 -66.56 -0.35C-65.35 -0.8 -64.41 -1.25 -63.75 -1.7C-63.08 -2.14 -62.69 -2.48 -62.56 -2.69L-61.21 0L-56.06 0L-56.06 -17.18C-56.06 -20.1 -56.83 -22.15 -58.38 -23.34C-59.93 -24.53 -62.13 -25.13 -64.98 -25.13C-69.71 -25.1 -73.46 -24.54 -76.22 -23.45L-76.22 -19.46C-71.32 -19.8 -67.87 -19.97 -65.86 -19.97C-65.3 -19.97 -64.84 -19.94 -64.47 -19.88C-64.09 -19.82 -63.75 -19.68 -63.44 -19.46C-63.13 -19.24 -62.91 -18.93 -62.77 -18.53C-62.63 -18.13 -62.56 -17.6 -62.56 -16.95C-62.53 -16.92 -62.53 -16.4 -62.56 -15.37C-63.8 -15.34 -65.02 -15.33 -66.21 -15.35C-67.4 -15.37 -68.6 -15.37 -69.81 -15.37C-71.11 -15.37 -72.23 -15.2 -73.17 -14.84C-74.12 -14.48 -74.87 -13.98 -75.43 -13.33C-75.98 -12.68 -76.39 -11.97 -76.66 -11.19C-76.92 -10.42 -77.05 -9.55 -77.05 -8.59ZM-70.55 -7.2L-70.55 -8.41C-70.55 -8.72 -70.53 -8.99 -70.48 -9.24C-70.43 -9.49 -70.34 -9.74 -70.2 -9.99C-70.06 -10.23 -69.85 -10.44 -69.57 -10.61C-69.3 -10.78 -68.96 -10.88 -68.55 -10.91L-62.56 -11.38L-62.56 -6.87L-62.75 -6.76C-62.87 -6.68 -63.03 -6.59 -63.23 -6.48C-63.44 -6.37 -63.68 -6.25 -63.95 -6.11C-64.23 -5.97 -64.54 -5.83 -64.88 -5.69C-65.22 -5.55 -65.57 -5.43 -65.93 -5.32C-66.28 -5.21 -66.66 -5.12 -67.07 -5.04C-67.47 -4.96 -67.86 -4.92 -68.23 -4.92C-68.97 -4.92 -69.54 -5.07 -69.95 -5.36C-70.35 -5.66 -70.55 -6.27 -70.55 -7.2Z M-27.17 0L-12.73 0C-10.71 0 -8.94 -0.4 -7.41 -1.21C-5.88 -2.01 -4.64 -3.17 -3.72 -4.69C-2.79 -6.21 -2.09 -7.98 -1.63 -10.01C-1.16 -12.04 -0.93 -14.32 -0.93 -16.86C-0.93 -28.29 -4.86 -34 -12.73 -34L-27.17 -34ZM-20.67 -5.81L-20.67 -28.24L-13.24 -28.24C-12.49 -28.24 -11.84 -28.14 -11.26 -27.94C-10.69 -27.74 -10.16 -27.38 -9.66 -26.87C-9.17 -26.36 -8.76 -25.68 -8.45 -24.82C-8.14 -23.97 -7.9 -22.89 -7.71 -21.57C-7.52 -20.26 -7.43 -18.7 -7.43 -16.91C-7.43 -9.51 -9.37 -5.81 -13.24 -5.81Z M7.15 -12.45C7.15 -10.13 7.28 -8.19 7.55 -6.64C7.81 -5.09 8.25 -3.79 8.87 -2.74C9.49 -1.69 10.32 -0.93 11.36 -0.46C12.39 0 13.7 0.23 15.28 0.23C21.38 0.23 25.59 -0.2 27.91 -1.07L27.91 -5.48C25.68 -5.14 22.67 -4.97 18.86 -4.97C17.49 -4.97 16.5 -5.05 15.86 -5.2C15.23 -5.36 14.7 -5.78 14.28 -6.48C13.86 -7.18 13.65 -8.24 13.65 -9.66L21.5 -9.66C23.8 -9.66 25.51 -10.16 26.66 -11.15C27.81 -12.14 28.38 -13.72 28.38 -15.88C28.38 -17.03 28.31 -18.04 28.17 -18.93C28.03 -19.81 27.83 -20.57 27.57 -21.2C27.3 -21.84 26.94 -22.38 26.47 -22.83C26.01 -23.28 25.53 -23.63 25.03 -23.9C24.54 -24.16 23.9 -24.36 23.11 -24.5C22.32 -24.64 21.54 -24.73 20.76 -24.78C19.99 -24.82 19.04 -24.85 17.93 -24.85C16.26 -24.85 14.87 -24.76 13.77 -24.57C12.67 -24.38 11.67 -24.04 10.78 -23.55C9.88 -23.05 9.18 -22.33 8.69 -21.39C8.19 -20.44 7.81 -19.25 7.55 -17.81C7.28 -16.37 7.15 -14.58 7.15 -12.45ZM13.65 -14.35C13.62 -15.68 13.68 -16.72 13.82 -17.46C13.96 -18.21 14.25 -18.76 14.7 -19.11C15.15 -19.47 15.61 -19.68 16.09 -19.76C16.57 -19.84 17.31 -19.88 18.3 -19.88C19.85 -19.88 20.83 -19.65 21.25 -19.21C21.67 -18.76 21.88 -17.76 21.88 -16.21C21.88 -14.97 21.19 -14.35 19.83 -14.35Z M36.55 -8.78C36.55 -7.17 36.69 -5.79 36.97 -4.64C37.25 -3.5 37.67 -2.59 38.22 -1.93C38.78 -1.26 39.45 -0.77 40.22 -0.46C41 -0.15 41.89 0 42.92 0L48.3 0L48.3 -3.99C48.09 -3.99 47.05 -4.32 45.19 -4.97C44.45 -5.25 43.91 -5.71 43.57 -6.36C43.22 -7.01 43.05 -8.16 43.05 -9.8L43.05 -36.37L36.55 -36.37Z M55.36 -28.33C55.36 -28.12 55.41 -27.92 55.5 -27.75C55.59 -27.58 55.73 -27.46 55.9 -27.38C56.07 -27.3 56.26 -27.26 56.48 -27.26L61.35 -27.26C61.69 -27.26 61.95 -27.36 62.12 -27.54C62.29 -27.73 62.38 -27.99 62.38 -28.33L62.38 -32.42C62.38 -33.22 62.04 -33.63 61.35 -33.63L56.48 -33.63C55.73 -33.63 55.36 -33.22 55.36 -32.42ZM55.59 0L62.1 0L62.1 -24.66L55.59 -24.66Z M69.53 -24.66L78.12 0L85.41 0L94.38 -24.66L87.41 -24.66L81.88 -7.62L76.49 -24.66Z M101.39 -12.45C101.39 -10.13 101.52 -8.19 101.78 -6.64C102.05 -5.09 102.49 -3.79 103.11 -2.74C103.73 -1.69 104.56 -0.93 105.59 -0.46C106.63 0 107.94 0.23 109.52 0.23C115.62 0.23 119.83 -0.2 122.15 -1.07L122.15 -5.48C119.92 -5.14 116.9 -4.97 113.09 -4.97C111.73 -4.97 110.73 -5.05 110.1 -5.2C109.46 -5.36 108.94 -5.78 108.52 -6.48C108.1 -7.18 107.89 -8.24 107.89 -9.66L115.74 -9.66C118.03 -9.66 119.75 -10.16 120.9 -11.15C122.04 -12.14 122.61 -13.72 122.61 -15.88C122.61 -17.03 122.55 -18.04 122.41 -18.93C122.27 -19.81 122.07 -20.57 121.8 -21.2C121.54 -21.84 121.18 -22.38 120.71 -22.83C120.25 -23.28 119.77 -23.63 119.27 -23.9C118.78 -24.16 118.13 -24.36 117.34 -24.5C116.55 -24.64 115.77 -24.73 115 -24.78C114.22 -24.82 113.28 -24.85 112.16 -24.85C110.49 -24.85 109.11 -24.76 108.01 -24.57C106.91 -24.38 105.91 -24.04 105.01 -23.55C104.11 -23.05 103.42 -22.33 102.92 -21.39C102.43 -20.44 102.05 -19.25 101.78 -17.81C101.52 -16.37 101.39 -14.58 101.39 -12.45ZM107.89 -14.35C107.86 -15.68 107.92 -16.72 108.05 -17.46C108.19 -18.21 108.49 -18.76 108.94 -19.11C109.39 -19.47 109.85 -19.68 110.33 -19.76C110.81 -19.84 111.55 -19.88 112.54 -19.88C114.08 -19.88 115.07 -19.65 115.49 -19.21C115.9 -18.76 116.11 -17.76 116.11 -16.21C116.11 -14.97 115.43 -14.35 114.07 -14.35Z M130.79 0L137.29 0L137.29 -15.74C138.03 -16.8 138.89 -17.52 139.87 -17.9C140.84 -18.29 142.06 -18.49 143.52 -18.49C145.03 -18.49 146.22 -18.44 147.09 -18.35L147.09 -24.62C146.6 -24.8 145.68 -24.89 144.35 -24.89C141.97 -24.89 139.61 -23.78 137.29 -21.55L136.27 -24.66L130.79 -24.66Z M153.45 -24.66L158.28 -6.27C159.4 -2.09 161.85 0 165.62 0L162.14 12.54L166.78 12.54L170.17 7.8L178.72 -24.66L171.94 -24.66L167.02 -5.57L166.81 -5.6C166.67 -5.61 166.55 -5.62 166.46 -5.62C166.37 -5.62 166.23 -5.64 166.06 -5.69C165.89 -5.74 165.75 -5.8 165.62 -5.88C165.5 -5.95 165.36 -6.05 165.2 -6.18C165.05 -6.3 164.92 -6.47 164.81 -6.69C164.7 -6.9 164.62 -7.14 164.55 -7.38L160.28 -24.66Z"></path></g></g></g></svg>